<svg width="234" height="27" viewBox="0 0 234 27" fill="none" xmlns="http://www.w3.org/2000/svg">
<path d="M0.516 26L16.14 0.439999H21.072L27.192 26H21.432L20.316 20.78H9.768L6.708 26H0.516ZM12.648 15.884H19.236L17.472 7.64L12.648 15.884ZM49.8532 0.439999H55.6492L53.2732 14.336C52.6012 18.248 51.1612 21.236 48.9532 23.3C46.7452 25.34 43.8652 26.36 40.3132 26.36C37.8652 26.36 35.8252 25.916 34.1932 25.028C32.5852 24.116 31.4452 22.82 30.7732 21.14C30.1012 19.46 29.9692 17.468 30.3772 15.164L32.9692 0.439999H38.8732L36.3532 14.696C35.6092 18.992 37.1332 21.14 40.9252 21.14C42.7732 21.14 44.2252 20.564 45.2812 19.412C46.3612 18.236 47.1172 16.412 47.5492 13.94L49.8532 0.439999ZM80.0856 0.439999L78.3936 5.588H70.6896L67.0896 26H61.1856L64.7856 5.588H56.6856L57.5856 0.439999H80.0856ZM87.7783 26.36C85.5463 26.36 83.6023 25.952 81.9463 25.136C80.2903 24.32 79.0063 23.156 78.0943 21.644C77.1823 20.132 76.7263 18.32 76.7263 16.208C76.7263 13.928 77.1223 11.804 77.9143 9.836C78.7063 7.868 79.7983 6.164 81.1903 4.724C82.6063 3.26 84.2503 2.12 86.1223 1.304C88.0183 0.487999 90.0823 0.079999 92.3143 0.079999C94.4263 0.079999 96.2623 0.499999 97.8223 1.34C99.4063 2.18 100.63 3.368 101.494 4.904C102.358 6.44 102.79 8.252 102.79 10.34C102.79 12.572 102.406 14.66 101.638 16.604C100.87 18.548 99.8023 20.252 98.4343 21.716C97.0663 23.18 95.4703 24.32 93.6463 25.136C91.8223 25.952 89.8663 26.36 87.7783 26.36ZM88.4263 21.14C90.0103 21.14 91.4263 20.696 92.6743 19.808C93.9463 18.896 94.9423 17.672 95.6623 16.136C96.4063 14.6 96.7783 12.872 96.7783 10.952C96.7783 9.2 96.2983 7.82 95.3383 6.812C94.4023 5.804 93.1063 5.3 91.4503 5.3C89.7943 5.3 88.3063 5.756 86.9863 6.668C85.6903 7.556 84.6583 8.768 83.8903 10.304C83.1223 11.84 82.7383 13.568 82.7383 15.488C82.7383 17.264 83.2303 18.656 84.2143 19.664C85.2223 20.648 86.6263 21.14 88.4263 21.14ZM113.058 26L117.558 0.439999H125.586C129.954 0.439999 133.29 1.364 135.594 3.212C137.898 5.036 139.05 7.616 139.05 10.952C139.05 13.184 138.654 15.224 137.862 17.072C137.094 18.896 136.002 20.48 134.586 21.824C133.194 23.144 131.526 24.176 129.582 24.92C127.662 25.64 125.55 26 123.246 26H113.058ZM119.898 20.78H123.786C126.762 20.78 129.054 19.964 130.662 18.332C132.27 16.676 133.074 14.432 133.074 11.6C133.074 9.632 132.45 8.156 131.202 7.172C129.978 6.164 128.07 5.66 125.478 5.66H122.526L119.898 20.78ZM140.304 26L144.804 0.439999H150.672L146.172 26H140.304ZM150.991 26L155.491 0.439999H161.359L157.795 20.852H168.811L167.551 26H150.991ZM170.151 26L174.651 0.439999H180.519L176.955 20.852H187.971L186.711 26H170.151ZM196.008 20.924H208.068L206.808 26H189.312L193.812 0.439999H211.344L210.444 5.516H198.708L197.808 10.592H208.824L207.924 15.668H196.908L196.008 20.924ZM232.299 20.492L233.019 25.028C232.419 25.46 231.699 25.784 230.859 26C230.019 26.24 229.191 26.36 228.375 26.36C226.743 26.36 225.399 26.048 224.343 25.424C223.287 24.776 222.483 23.816 221.931 22.544L219.771 17.72C219.507 17.144 219.207 16.748 218.871 16.532C218.535 16.292 218.139 16.16 217.683 16.136L215.919 26H210.159L214.659 0.439999H222.687C225.927 0.439999 228.339 1.016 229.923 2.168C231.531 3.296 232.335 4.952 232.335 7.136C232.335 9.488 231.615 11.42 230.175 12.932C228.735 14.42 226.851 15.368 224.523 15.776C225.195 16.136 225.735 16.748 226.143 17.612L227.043 19.484C227.331 20.084 227.703 20.528 228.159 20.816C228.615 21.08 229.143 21.212 229.743 21.212C230.271 21.212 230.739 21.164 231.147 21.068C231.579 20.948 231.963 20.756 232.299 20.492ZM221.607 5.228H219.591L218.475 11.564H221.103C222.927 11.564 224.259 11.264 225.099 10.664C225.963 10.04 226.395 9.14 226.395 7.964C226.395 6.98 225.987 6.284 225.171 5.876C224.379 5.444 223.191 5.228 221.607 5.228Z" fill="white"/>
</svg>
